<svg xmlns:inkscape="http://www.inkscape.org/namespaces/inkscape" xmlns:rdf="http://www.w3.org/1999/02/22-rdf-syntax-ns#" xmlns="http://www.w3.org/2000/svg" xmlns:cc="http://creativecommons.org/ns#" xmlns:dc="http://purl.org/dc/elements/1.1/" xmlns:sodipodi="http://sodipodi.sourceforge.net/DTD/sodipodi-0.dtd" id="svg8589" sodipodi:docname="_svgclean2.svg" viewBox="0 0 342.61 440.82" version="1.1" inkscape:version="0.48.3.1 r9886">
  <sodipodi:namedview id="base" bordercolor="#666666" inkscape:pageshadow="2" inkscape:window-y="0" pagecolor="#ffffff" inkscape:window-maximized="0" inkscape:zoom="0.7" inkscape:window-x="0" inkscape:window-height="645" showgrid="false" borderopacity="1.0" inkscape:current-layer="layer1" inkscape:cx="353.90193" inkscape:cy="186.10013" inkscape:window-width="674" inkscape:pageopacity="0.0" inkscape:document-units="px"/>
  <g id="layer1" inkscape:label="Ebene 1" inkscape:groupmode="layer" transform="translate(-199.2 -280.53)">
    <path id="path3904-6" d="m199.2 543.2s29.82-7.6136 56.467-43.143c10.786-15.227 20.303-43.143 27.282-67.887 6.3446-13.958 4.4412-20.303 34.261-32.357 19.034-10.786 48.853-32.992 62.177-68.522 3.8067-15.862-5.0757-51.391 27.282-50.757 34.261 0 32.357 31.089 34.261 52.026-2.5378 37.433-31.723 73.597-31.723 73.597l-25.378 41.24s9.4438-0.53086 39.351 1.1354c23.715 1.3212 48.55-3.0063 81.831 7.1125 75.501 38.068 11.42 64.715 11.42 64.715 41.24 29.82 4.4412 61.543 4.4412 61.543 26.013 46.95-16.466 56.715-13.958 57.101 8.248 1.2689 36.799 31.088-12.055 57.101 0 0-53.295 23.475-82.48 23.475-19.034 3.1724-73.597 3.8068-114.84-13.324-48.853-8.2481-38.702 2.5378-79.307 10.151z" sodipodi:nodetypes="cccccccccscccsccccc" style="fill:#000000" inkscape:connector-curvature="0"/>
  </g>
  <metadata id="metadata6">
    <rdf:RDF>
      <cc:Work>
        <dc:format>image/svg+xml</dc:format>
        <dc:type rdf:resource="http://purl.org/dc/dcmitype/StillImage"/>
        <cc:license rdf:resource="http://creativecommons.org/licenses/publicdomain/"/>
        <dc:publisher>
          <cc:Agent rdf:about="http://openclipart.org/">
            <dc:title>Openclipart</dc:title>
          </cc:Agent>
        </dc:publisher>
      </cc:Work>
      <cc:License rdf:about="http://creativecommons.org/licenses/publicdomain/">
        <cc:permits rdf:resource="http://creativecommons.org/ns#Reproduction"/>
        <cc:permits rdf:resource="http://creativecommons.org/ns#Distribution"/>
        <cc:permits rdf:resource="http://creativecommons.org/ns#DerivativeWorks"/>
      </cc:License>
    </rdf:RDF>
  </metadata>
</svg>
